<svg id="Layer_29" data-name="Layer 29" xmlns="http://www.w3.org/2000/svg" viewBox="0 0 256 256"><defs><style>.cls-1{fill:#d42327;}.cls-2{fill:#fff;}</style></defs><title>java_v2</title><rect class="cls-1" width="256" height="256"/><path class="cls-2" d="M56.1,137.66c0.05-17.86-.05-35.72.05-53.63,3.7,0.11,7.4,0,11.11.11-0.05,20,0,40-.05,60.05-0.11,5.61-.22,11.49-2.94,16.5-3,5.34-8.33,9.09-14,11.27-1.8-2-3.43-4-5.23-6h0c4.57-2.67,9.15-6.48,10.24-12s0.71-10.89.82-16.33h0Z"/><path class="cls-2" d="M77.55,105.54a47.2,47.2,0,0,1,23.52-3.92c4.14,0.49,8.35,2,11,5.34,2.23,2.83,2.91,6.48,2.91,10v37h-8c-0.27-2-.54-3.89-0.76-5.75-3.1,2.45-6.42,4.67-10.29,5.65a22.22,22.22,0,0,1-13.56-.71,12,12,0,0,1-6.86-7.87c-1.36-5.06-.65-11,2.94-15.1,3.21-3.76,8.06-5.62,12.85-6.49a69.18,69.18,0,0,1,13.45-.88c-0.11-3.43.54-7.19-1.42-10.24-1.58-2.34-4.46-3.27-7.13-3.43-5.83-.49-11.6,1-17.1,2.89-0.54-2.18-1-4.36-1.52-6.53m13.5,25.26a7.63,7.63,0,0,0-5.28,5A9.72,9.72,0,0,0,87,144.2c1.74,2.29,4.9,2.83,7.62,2.5,3.81-.44,7.13-2.61,10.07-5,0-4.08-.05-8.11,0-12.2-4.57,0-9.26-.27-13.67,1.25h0Z"/><path class="cls-2" d="M173.27,105.54a47,47,0,0,1,23.63-3.92c4,0.49,8.17,2,10.83,5.12,2.51,3,3.27,7,3.21,10.78-0.05,12,.05,24-0.11,36-2.72-.11-5.44.05-8.17-0.11-0.27-1.85-.49-3.65-0.82-5.44-3.81,3.27-8.38,5.93-13.56,6.37-4.74.44-10.07-.16-13.78-3.54-3.87-3.59-4.52-9.42-3.54-14.37a15.32,15.32,0,0,1,8.49-10.34c6.48-3.16,13.88-3.32,21-3.27-0.11-3.32.49-6.86-1.2-9.85-1.31-2.4-4.08-3.48-6.7-3.76-6-.65-12.09.87-17.75,2.83-0.49-2.18-1-4.36-1.52-6.53m13.34,25.32a7.79,7.79,0,0,0-5.12,4.9,10,10,0,0,0,1.2,8.44c1.8,2.34,5,2.83,7.79,2.5a19.88,19.88,0,0,0,10-5.12c-0.11-4-.05-8-0.05-12-4.63,0-9.37-.27-13.83,1.31h0Z"/><path class="cls-2" d="M121.38,102h11.43c2.23,7,4.41,14.46,6.64,21.64,1.31,4.41,2.94,8.83,3.87,13.35,0.49,2,.93,4,1.52,5.94A202.62,202.62,0,0,0,155,102h11.11a219.34,219.34,0,0,1-15.9,52H137.12c-5.23-18-10.51-35-15.73-52h0Z"/></svg>